<?xml version="1.0" encoding="UTF-8"?>
<svg width="197px" height="97px" viewBox="0 0 197 97" version="1.1" xmlns="http://www.w3.org/2000/svg" xmlns:xlink="http://www.w3.org/1999/xlink">
    <!-- Generator: Sketch 59.1 (86144) - https://sketch.com -->
    <title>star-wars-logo</title>
    <desc>Created with Sketch.</desc>
    <g id="star-wars-logo" stroke="none" stroke-width="1" fill="none" fill-rule="evenodd">
        <g id="Group" transform="translate(8.000000, 8.000000)" fill="#FBC225">
            <path d="M0,25.3303289 L0,38 C0,38 32.5967164,38 36.8838693,38 C41.1710223,38 46.649328,34.0171305 46.649328,27.4284208 C46.649328,24.7775142 47.6580699,23.0499684 44.5580825,19.5448029 L39.8393236,13.9275248 C37.1360548,11.3937908 40.1622805,11.3937908 42.4319497,11.3937908 C43.6938738,11.3937908 58.0056484,11.3937908 58.0056484,11.3937908 L58.0056484,38 L70.355759,38 L70.355759,11.3937908 L87,11.3937908 L87,0 L33.1010873,0 C26.5442651,0 23.3366254,6.326323 23.5170427,9.6201771 C23.6984567,12.9140312 24.3015089,17.0581383 29.7519048,22.0364748 C34.7218524,26.5761649 27.2898569,25.3303289 26.5442651,25.3303289 C22.7604862,25.3303289 0,25.3303289 0,25.3303289" id="Fill-2"></path>
            <path d="M114.327754,0 L94.252762,0 L83,38 L95.5232675,38 L97.5560763,32.6791588 L110.770338,32.6791588 L112.730834,38 L125,38 L114.327754,0 Z M100.351188,23.5567152 L104.670907,9.6201771 L108.737529,23.5567152 L100.351188,23.5567152 L100.351188,23.5567152 Z" id="Fill-3"></path>
            <path d="M164.479125,25.3303289 C159.707398,25.3303289 159.707398,23.5567152 159.707398,23.5567152 C163.796173,23.5567152 167.422368,17.5468585 167.422368,11.3937908 C167.422368,5.24172465 161.465403,0 156.693676,0 C151.920957,0 130,0 130,0 L130,38 L143.562742,38 L143.562742,25.3303289 C143.562742,25.3303289 149.339043,32.1714105 152.352765,34.9595193 C155.366487,37.7466266 155.61763,38 159.707398,38 C163.796173,38 181,38 181,38 L181,25.3303289 C181,25.3303289 169.250852,25.3303289 164.479125,25.3303289 Z M152.1721,16.4622602 C148.72657,16.4622602 143.562742,16.4622602 143.562742,16.4622602 L143.562742,9.6201771 C143.562742,9.6201771 149.409522,9.6201771 152.1721,9.6201771 C156.118925,9.6201771 156.800884,16.4622602 152.1721,16.4622602 L152.1721,16.4622602 Z" id="Fill-4"></path>
            <polyline id="Fill-5" points="0 43 13.9233068 43 17.4511952 55.6670004 20.7270916 43 35.3436255 43 39.123506 55.6670004 42.9033865 43 55 43 43.9113546 81 32.8237052 81 27.9641434 63.0132799 22.4910359 81 11.1513944 81 0 43"></polyline>
            <path d="M84.3270045,43 L64.2524929,43 L53,81 L65.522968,81 L67.5557283,75.6791588 L80.7696741,75.6791588 L82.731127,81 L95,81 L84.3270045,43 Z M70.3507736,66.5577166 L74.6713934,52.6211786 L78.7369138,66.5577166 L70.3507736,66.5577166 L70.3507736,66.5577166 Z" id="Fill-6"></path>
            <path d="M164.664854,54.3393442 C162.395474,54.3393442 159.924771,54.6032815 162.627695,57.1231358 L167.345851,62.7096428 C170.445442,66.1956072 170.393616,67.6507483 170.393616,70.2861374 C170.393616,76.8387545 163.908394,80.799806 159.621789,80.799806 L129.826841,81 C125.721626,81 125.468476,80.7480146 122.442637,77.9761749 C119.416798,75.2043352 113.617273,68.4007286 113.617273,68.4007286 L113.617273,81 L100,81 L100,43.2081619 C100,43.2081619 122.01009,43.2081619 126.801002,43.2081619 C131.591914,43.2081619 137.57283,48.4211726 137.57283,54.5405342 C137.57283,60.6588997 133.932055,66.6368307 129.826841,66.6368307 C129.826841,66.6368307 131.63178,68.4515241 134.657619,68.4515241 C137.683458,68.4515241 149.334334,68.463476 149.334334,68.463476 C150.079831,68.463476 157.510877,69.7024874 152.541564,65.1876655 C147.091864,60.2366 146.489886,56.1151941 146.308495,52.8393835 C146.127104,49.563573 148.959592,43 155.515577,43 L181,43 L181,54.3393442 L164.664854,54.3393442 Z M122.261246,59.5802427 C118.801863,59.5802427 113.617273,59.5802427 113.617273,59.5802427 L113.617273,52.7766362 C113.617273,52.7766362 119.48756,52.7766362 122.261246,52.7766362 C126.223939,52.7766362 126.90864,59.5802427 122.261246,59.5802427 L122.261246,59.5802427 Z" id="Fill-7"></path>
        </g>
    </g>
</svg>